<?xml version="1.0" standalone="no"?>
<!DOCTYPE svg PUBLIC "-//W3C//DTD SVG 20010904//EN"
 "http://www.w3.org/TR/2001/REC-SVG-20010904/DTD/svg10.dtd">
<svg version="1.0" xmlns="http://www.w3.org/2000/svg"
 width="512.000000pt" height="512.000000pt" viewBox="0 0 512.000000 512.000000"
 preserveAspectRatio="xMidYMid meet">
<metadata>
Created by potrace 1.11, written by Peter Selinger 2001-2013
</metadata>
<g transform="translate(0.000000,512.000000) scale(0.100000,-0.100000)"
fill="#000000" stroke="none">
<path d="M2247 4449 c-21 -11 -37 -26 -34 -32 2 -7 145 -212 317 -457 173
-245 419 -596 549 -780 129 -184 266 -380 305 -435 79 -111 108 -155 104 -156
-16 -4 -49 -8 -115 -13 -43 -3 -94 -8 -113 -10 -19 -3 -64 -8 -100 -11 -36 -4
-76 -9 -90 -10 -14 -2 -56 -6 -95 -10 -38 -3 -77 -8 -85 -10 -8 -2 -40 -7 -70
-10 -30 -3 -66 -8 -80 -10 -14 -3 -45 -7 -70 -10 -25 -3 -58 -8 -73 -11 -16
-3 -38 -7 -50 -9 -12 -2 -42 -6 -67 -9 -25 -4 -73 -12 -108 -20 l-64 -13 5 38
4 38 -301 101 c-289 97 -303 103 -356 149 -30 27 -147 129 -260 228 l-206 180
-69 2 c-39 1 -154 4 -256 6 l-185 5 -22 -52 c-24 -61 -132 -336 -256 -651
l-85 -218 4 -107 c4 -105 10 -296 20 -617 3 -88 8 -216 10 -285 11 -319 18
-509 19 -555 l1 -50 318 0 317 -1 0 93 0 93 -30 1 c-16 1 -33 2 -37 3 -5 1
-39 6 -78 10 -79 9 -106 14 -111 19 -2 2 0 28 6 58 5 30 11 70 14 89 3 19 8
53 11 75 3 22 8 51 10 65 3 14 8 42 11 64 3 21 8 48 10 60 2 11 7 41 10 66 3
25 8 56 10 70 3 14 7 41 10 60 2 19 6 46 9 60 5 25 8 47 20 133 4 27 8 58 11
70 3 20 12 74 19 122 30 205 49 313 58 325 34 43 251 301 292 347 l30 34 105
-49 c233 -109 231 -108 300 -116 25 -3 68 -8 95 -12 76 -10 97 -12 133 -13 17
-1 32 -4 32 -8 0 -5 -62 -25 -138 -46 -75 -21 -189 -57 -251 -80 l-115 -42
-34 -90 c-19 -49 -49 -128 -67 -175 -18 -47 -52 -138 -76 -202 -24 -65 -50
-120 -58 -123 -7 -3 -32 -8 -55 -10 -78 -10 -81 -11 -80 -31 1 -19 11 -88 18
-134 8 -44 36 -234 40 -265 2 -16 7 -47 10 -67 3 -21 8 -53 11 -70 l5 -33 430
1 430 1 87 -87 c90 -89 166 -143 257 -185 203 -92 431 -104 639 -34 121 41
225 107 331 211 l98 96 676 1 c372 1 678 3 680 6 2 2 5 364 6 804 l1 801 -109
0 -110 0 105 61 c57 34 106 63 107 65 3 2 5 285 3 381 l-1 31 -162 -100 c-375
-231 -668 -408 -675 -408 -4 1 -33 37 -63 83 -53 79 -364 497 -407 547 -12 14
-72 86 -134 160 -62 74 -132 155 -154 180 -157 171 -206 222 -349 365 -89 88
-203 198 -255 245 -52 47 -99 90 -105 95 -47 44 -185 155 -192 155 -5 -1 -26
-10 -47 -21z m-94 -2263 c-4 -8 -71 -102 -148 -210 -108 -151 -147 -197 -170
-205 -47 -15 -311 -42 -309 -31 0 3 3 25 7 50 8 61 40 157 71 216 49 93 54 97
196 120 14 2 48 9 75 15 28 5 64 12 80 15 31 5 198 40 203 43 2 0 -1 -5 -5
-13z m695 -285 c32 -10 123 -59 152 -84 9 -6 31 -32 51 -57 133 -168 115 -408
-41 -554 -190 -178 -485 -144 -632 73 -75 111 -88 272 -31 393 44 93 110 161
197 203 39 18 82 35 96 38 38 7 171 -1 208 -12z"/>
<path d="M1222 3989 c-155 -30 -303 -181 -320 -325 -4 -41 -4 -41 29 -40 33 1
33 0 36 -45 4 -77 40 -158 97 -214 77 -76 131 -99 241 -99 77 -1 98 3 147 26
100 46 183 156 195 257 2 20 6 41 8 47 2 7 42 10 114 10 62 -1 115 1 120 4 9
6 11 40 2 41 -3 0 -17 2 -31 4 -28 5 -116 13 -141 14 -11 1 -23 19 -34 53 -61
188 -266 306 -463 267z"/>
</g>
</svg>
